{"title":"Beverly.Hills.Cop.1984.DVDRip.XviD.AC3-XTEND","uid":7476065,"size":1476341436,"categoryP":"video","categoryS":"movies","magnet":"?xt=urn:btih:08f1ef89a42d3beb5b198b4272a8ac301da6ad1d&amp;dn=Beverly.Hills.Cop.1984.DVDRip.XviD.AC3-XTEND&amp;tr=udp%3A%2F%2Ftracker.openbittorrent.com%3A80&amp;tr=udp%3A%2F%2Fopen.demonii.com%3A1337&amp;tr=udp%3A%2F%2Ftracker.coppersurfer.tk%3A6969&amp;tr=udp%3A%2F%2Fexodus.desync.com%3A6969","seeders":0,"leechers":0,"uploader":null,"files":-1,"time":1343295559,"description":"Overall bit rate               : 1 860 Kbps\nWriting application            : VirtualDubMod 1.5.4.1 (build 2178/release)\nWriting library                : VirtualDubMod build 2178/release\n\nVideo\nID                             : 0\nFormat                         : MPEG-4 Visual\nFormat profile                 : Advanced Simple@L5\nFormat settings, BVOP          : 1\nFormat settings, QPel          : No\nFormat settings, GMC           : No warppoints\nFormat settings, Matrix        : Custom\nCodec ID                       : XVID\nCodec ID/Hint                  : XviD\nDuration                       : 1h 45mn\nBit rate                       : 1 405 Kbps\nWidth                          : 640 pixels\nHeight                         : 368 pixels\nDisplay aspect ratio           : 1.739\nFrame rate                     : 23.976 fps\nColor space                    : YUV\nChroma subsampling             : 4:2:0\nBit depth                      : 8 bits\nScan type                      : Progressive\nCompression mode               : Lossy\nBits/(Pixel*Frame)             : 0.249\nStream size                    : 1.03 GiB (76%)\nWriting library                : XviD 64\n\nAudio\nID                             : 1\nFormat                         : AC-3\nFormat/Info                    : Audio Coding 3\nMode extension                 : CM (complete main)\nFormat settings, Endianness    : Big\nCodec ID                       : 2000\nDuration                       : 1h 45mn\nBit rate mode                  : Constant\nBit rate                       : 448 Kbps\nChannel(s)                     : 6 channels\nChannel positions              : Front: L C R, Side: L R, LFE\nSampling rate                  : 48.0 KHz\nBit depth                      : 16 bits\nCompression mode               : Lossy\nDelay relative to video        : 4ms\nStream size                    : 337 MiB (24%)\nAlignment                      : Split accross interleaves\nInterleave, duration           : 96 ms (2.30 video frames)\nInterleave, preload duration   : 96 ms\nLanguage                       : English\n\nSubtitles\t\t       : English, French","torrent":{"xt":"urn:btih:08f1ef89a42d3beb5b198b4272a8ac301da6ad1d","amp;dn":"Beverly.Hills.Cop.1984.DVDRip.XviD.AC3-XTEND","amp;tr":["udp%3A%2F%2Ftracker.openbittorrent.com%3A80","udp%3A%2F%2Fopen.demonii.com%3A1337","udp%3A%2F%2Ftracker.coppersurfer.tk%3A6969","udp%3A%2F%2Fexodus.desync.com%3A6969"],"infoHash":"08f1ef89a42d3beb5b198b4272a8ac301da6ad1d","infoHashBuffer":{"type":"Buffer","data":[8,241,239,137,164,45,59,235,91,25,139,66,114,168,172,48,29,166,173,29]},"announce":[],"urlList":[]}}